<svg xmlns="http://www.w3.org/2000/svg" xmlns:xlink="http://www.w3.org/1999/xlink" width="450" zoomAndPan="magnify" viewBox="0 0 337.5 149.999998" height="200" preserveAspectRatio="xMidYMid meet" version="1.0"><defs><g/><clipPath id="15330e97b0"><path d="M 0 0.109375 L 337 0.109375 L 337 149.886719 L 0 149.886719 Z M 0 0.109375 " clip-rule="nonzero"/></clipPath><clipPath id="c9e3c5daf1"><path d="M 212 113 L 337 113 L 337 149.886719 L 212 149.886719 Z M 212 113 " clip-rule="nonzero"/></clipPath><clipPath id="5f25e6dcbf"><path d="M 217 24.867188 L 258 24.867188 L 258 87 L 217 87 Z M 217 24.867188 " clip-rule="nonzero"/></clipPath><clipPath id="3e1451a327"><path d="M 261 131 L 315 131 L 315 149.886719 L 261 149.886719 Z M 261 131 " clip-rule="nonzero"/></clipPath><clipPath id="52d72eb79b"><path d="M 270 140 L 307 140 L 307 149.886719 L 270 149.886719 Z M 270 140 " clip-rule="nonzero"/></clipPath><clipPath id="e5455ab477"><path d="M 319 24.867188 L 337 24.867188 L 337 87 L 319 87 Z M 319 24.867188 " clip-rule="nonzero"/></clipPath><clipPath id="520bd18b65"><path d="M 225 42 L 337 42 L 337 79 L 225 79 Z M 225 42 " clip-rule="nonzero"/></clipPath><clipPath id="d06a26515d"><path d="M 216 38 L 337 38 L 337 149.886719 L 216 149.886719 Z M 216 38 " clip-rule="nonzero"/></clipPath><clipPath id="1286b632a7"><path d="M 217 109 L 337 109 L 337 149.886719 L 217 149.886719 Z M 217 109 " clip-rule="nonzero"/></clipPath><clipPath id="88114438be"><path d="M 273 132 L 304 132 L 304 149.886719 L 273 149.886719 Z M 273 132 " clip-rule="nonzero"/></clipPath><clipPath id="50119ab008"><path d="M 0 0.109375 L 55.375 0.109375 L 55.375 63.632812 L 0 63.632812 Z M 0 0.109375 " clip-rule="nonzero"/></clipPath><clipPath id="e69df2dc1f"><path d="M 0 0.109375 L 8 0.109375 L 8 12 L 0 12 Z M 0 0.109375 " clip-rule="nonzero"/></clipPath><clipPath id="b89b66b1c6"><path d="M 20 0.109375 L 30 0.109375 L 30 1 L 20 1 Z M 20 0.109375 " clip-rule="nonzero"/></clipPath></defs><g clip-path="url(#15330e97b0)"><path fill="#ffffff" d="M 0 0.109375 L 337.5 0.109375 L 337.5 157.609375 L 0 157.609375 Z M 0 0.109375 " fill-opacity="1" fill-rule="nonzero"/><path fill="#ffffff" d="M 0 0.109375 L 337.5 0.109375 L 337.5 150.109375 L 0 150.109375 Z M 0 0.109375 " fill-opacity="1" fill-rule="nonzero"/><path fill="#1e293b" d="M 0 0.109375 L 337.5 0.109375 L 337.5 150.109375 L 0 150.109375 Z M 0 0.109375 " fill-opacity="1" fill-rule="nonzero"/></g><g clip-path="url(#c9e3c5daf1)"><path fill="#ccd6dd" d="M 234.789062 126.929688 L 212.515625 113.617188 L 221.425781 140.242188 L 216.972656 149.117188 L 243.699219 171.304688 L 274.882812 180.179688 L 288.246094 131.367188 Z M 341.703125 126.929688 L 363.976562 113.617188 L 355.066406 140.242188 L 359.519531 149.117188 L 332.792969 171.304688 L 301.609375 180.179688 L 288.246094 131.367188 Z M 341.703125 126.929688 " fill-opacity="1" fill-rule="nonzero"/></g><g clip-path="url(#5f25e6dcbf)"><path fill="#66757f" d="M 257.0625 55.929688 C 257.0625 73.082031 243.558594 86.992188 226.902344 86.992188 C 210.246094 86.992188 221.875 24.867188 221.875 24.867188 C 221.875 24.867188 257.0625 38.773438 257.0625 55.929688 Z M 257.0625 55.929688 " fill-opacity="1" fill-rule="nonzero"/></g><g clip-path="url(#3e1451a327)"><path fill="#66757f" d="M 314.972656 157.992188 C 314.972656 158.863281 314.929688 159.734375 314.847656 160.601562 C 314.761719 161.46875 314.632812 162.328125 314.460938 163.183594 C 314.289062 164.039062 314.078125 164.886719 313.824219 165.71875 C 313.570312 166.554688 313.273438 167.375 312.941406 168.179688 C 312.605469 168.984375 312.230469 169.773438 311.820312 170.542969 C 311.40625 171.308594 310.957031 172.058594 310.46875 172.78125 C 309.984375 173.507812 309.460938 174.207031 308.90625 174.882812 C 308.351562 175.554688 307.765625 176.199219 307.144531 176.816406 C 306.527344 177.433594 305.878906 178.019531 305.203125 178.570312 C 304.527344 179.125 303.824219 179.644531 303.09375 180.128906 C 302.367188 180.613281 301.617188 181.0625 300.847656 181.472656 C 300.074219 181.882812 299.285156 182.253906 298.476562 182.589844 C 297.664062 182.921875 296.84375 183.214844 296.003906 183.46875 C 295.167969 183.722656 294.320312 183.933594 293.460938 184.105469 C 292.601562 184.273438 291.738281 184.402344 290.867188 184.488281 C 289.996094 184.574219 289.121094 184.617188 288.246094 184.617188 C 287.371094 184.617188 286.496094 184.574219 285.625 184.488281 C 284.753906 184.402344 283.890625 184.273438 283.03125 184.105469 C 282.171875 183.933594 281.324219 183.722656 280.488281 183.46875 C 279.648438 183.214844 278.828125 182.921875 278.019531 182.589844 C 277.210938 182.253906 276.417969 181.882812 275.648438 181.472656 C 274.875 181.0625 274.125 180.613281 273.398438 180.128906 C 272.667969 179.644531 271.96875 179.125 271.289062 178.570312 C 270.613281 178.019531 269.964844 177.433594 269.347656 176.816406 C 268.726562 176.199219 268.140625 175.554688 267.585938 174.882812 C 267.03125 174.207031 266.507812 173.507812 266.023438 172.78125 C 265.535156 172.058594 265.085938 171.308594 264.675781 170.542969 C 264.261719 169.773438 263.886719 168.984375 263.550781 168.179688 C 263.21875 167.375 262.921875 166.554688 262.667969 165.71875 C 262.414062 164.886719 262.203125 164.039062 262.03125 163.183594 C 261.859375 162.328125 261.734375 161.46875 261.648438 160.601562 C 261.5625 159.734375 261.519531 158.863281 261.519531 157.992188 C 261.519531 157.117188 261.5625 156.25 261.648438 155.382812 C 261.734375 154.511719 261.859375 153.652344 262.03125 152.796875 C 262.203125 151.941406 262.414062 151.097656 262.667969 150.261719 C 262.921875 149.425781 263.21875 148.605469 263.550781 147.800781 C 263.886719 146.996094 264.261719 146.207031 264.675781 145.441406 C 265.085938 144.671875 265.535156 143.921875 266.023438 143.199219 C 266.507812 142.472656 267.03125 141.773438 267.585938 141.101562 C 268.140625 140.425781 268.726562 139.78125 269.347656 139.164062 C 269.964844 138.546875 270.613281 137.960938 271.289062 137.410156 C 271.96875 136.855469 272.667969 136.335938 273.398438 135.851562 C 274.125 135.367188 274.875 134.921875 275.648438 134.507812 C 276.417969 134.097656 277.210938 133.726562 278.019531 133.390625 C 278.828125 133.058594 279.648438 132.765625 280.488281 132.511719 C 281.324219 132.257812 282.171875 132.046875 283.03125 131.878906 C 283.890625 131.707031 284.753906 131.578125 285.625 131.492188 C 286.496094 131.410156 287.371094 131.367188 288.246094 131.367188 C 289.121094 131.367188 289.996094 131.410156 290.867188 131.492188 C 291.738281 131.578125 292.601562 131.707031 293.460938 131.878906 C 294.320312 132.046875 295.167969 132.257812 296.003906 132.511719 C 296.84375 132.765625 297.664062 133.058594 298.476562 133.390625 C 299.285156 133.726562 300.074219 134.097656 300.847656 134.507812 C 301.617188 134.921875 302.367188 135.367188 303.09375 135.851562 C 303.824219 136.335938 304.527344 136.855469 305.203125 137.410156 C 305.878906 137.960938 306.527344 138.546875 307.144531 139.164062 C 307.765625 139.78125 308.351562 140.425781 308.90625 141.101562 C 309.460938 141.773438 309.984375 142.472656 310.46875 143.199219 C 310.957031 143.921875 311.40625 144.671875 311.820312 145.441406 C 312.230469 146.207031 312.605469 146.996094 312.941406 147.800781 C 313.273438 148.605469 313.570312 149.425781 313.824219 150.261719 C 314.078125 151.097656 314.289062 151.941406 314.460938 152.796875 C 314.632812 153.652344 314.761719 154.511719 314.847656 155.382812 C 314.929688 156.25 314.972656 157.117188 314.972656 157.992188 Z M 314.972656 157.992188 " fill-opacity="1" fill-rule="nonzero"/></g><g clip-path="url(#52d72eb79b)"><path fill="#dd2e44" d="M 306.066406 157.992188 C 306.066406 158.570312 306.035156 159.152344 305.980469 159.730469 C 305.921875 160.308594 305.835938 160.882812 305.722656 161.453125 C 305.609375 162.023438 305.46875 162.585938 305.296875 163.144531 C 305.128906 163.699219 304.933594 164.246094 304.707031 164.78125 C 304.484375 165.320312 304.234375 165.84375 303.960938 166.359375 C 303.6875 166.871094 303.386719 167.367188 303.0625 167.851562 C 302.738281 168.335938 302.390625 168.800781 302.019531 169.25 C 301.648438 169.699219 301.257812 170.128906 300.847656 170.542969 C 300.433594 170.953125 300 171.34375 299.550781 171.710938 C 299.097656 172.082031 298.632812 172.425781 298.144531 172.75 C 297.660156 173.070312 297.160156 173.371094 296.644531 173.644531 C 296.132812 173.917969 295.605469 174.167969 295.066406 174.390625 C 294.527344 174.613281 293.976562 174.808594 293.417969 174.976562 C 292.859375 175.144531 292.296875 175.285156 291.722656 175.398438 C 291.148438 175.511719 290.574219 175.597656 289.992188 175.65625 C 289.410156 175.710938 288.828125 175.742188 288.246094 175.742188 C 287.664062 175.742188 287.082031 175.710938 286.5 175.65625 C 285.917969 175.597656 285.34375 175.511719 284.769531 175.398438 C 284.199219 175.285156 283.632812 175.144531 283.074219 174.976562 C 282.515625 174.808594 281.964844 174.613281 281.425781 174.390625 C 280.886719 174.167969 280.359375 173.917969 279.847656 173.644531 C 279.332031 173.371094 278.832031 173.070312 278.347656 172.75 C 277.863281 172.425781 277.394531 172.082031 276.941406 171.710938 C 276.492188 171.34375 276.058594 170.953125 275.648438 170.542969 C 275.234375 170.128906 274.84375 169.699219 274.472656 169.25 C 274.101562 168.800781 273.753906 168.335938 273.429688 167.851562 C 273.105469 167.367188 272.808594 166.871094 272.53125 166.359375 C 272.257812 165.84375 272.007812 165.320312 271.785156 164.78125 C 271.5625 164.246094 271.363281 163.699219 271.195312 163.144531 C 271.027344 162.585938 270.882812 162.023438 270.769531 161.453125 C 270.65625 160.882812 270.570312 160.308594 270.511719 159.730469 C 270.457031 159.152344 270.425781 158.570312 270.425781 157.992188 C 270.425781 157.410156 270.457031 156.828125 270.511719 156.25 C 270.570312 155.671875 270.65625 155.097656 270.769531 154.527344 C 270.882812 153.957031 271.027344 153.394531 271.195312 152.839844 C 271.363281 152.28125 271.5625 151.734375 271.785156 151.199219 C 272.007812 150.660156 272.257812 150.136719 272.53125 149.625 C 272.808594 149.109375 273.105469 148.613281 273.429688 148.128906 C 273.753906 147.644531 274.101562 147.179688 274.472656 146.730469 C 274.84375 146.28125 275.234375 145.851562 275.648438 145.4375 C 276.058594 145.027344 276.492188 144.636719 276.941406 144.269531 C 277.394531 143.902344 277.863281 143.554688 278.347656 143.230469 C 278.832031 142.910156 279.332031 142.609375 279.847656 142.335938 C 280.359375 142.0625 280.886719 141.8125 281.425781 141.589844 C 281.964844 141.371094 282.515625 141.171875 283.074219 141.003906 C 283.632812 140.835938 284.199219 140.695312 284.769531 140.582031 C 285.34375 140.46875 285.917969 140.382812 286.5 140.324219 C 287.082031 140.269531 287.664062 140.242188 288.246094 140.242188 C 288.828125 140.242188 289.410156 140.269531 289.992188 140.324219 C 290.574219 140.382812 291.148438 140.46875 291.722656 140.582031 C 292.296875 140.695312 292.859375 140.835938 293.417969 141.003906 C 293.976562 141.171875 294.527344 141.371094 295.066406 141.589844 C 295.605469 141.8125 296.132812 142.0625 296.644531 142.335938 C 297.160156 142.609375 297.660156 142.910156 298.144531 143.230469 C 298.632812 143.554688 299.097656 143.902344 299.550781 144.269531 C 300 144.636719 300.433594 145.027344 300.847656 145.4375 C 301.257812 145.851562 301.648438 146.28125 302.019531 146.730469 C 302.390625 147.179688 302.738281 147.644531 303.0625 148.128906 C 303.386719 148.613281 303.6875 149.109375 303.960938 149.625 C 304.234375 150.136719 304.484375 150.660156 304.707031 151.199219 C 304.933594 151.734375 305.128906 152.28125 305.296875 152.839844 C 305.46875 153.394531 305.609375 153.957031 305.722656 154.527344 C 305.835938 155.097656 305.921875 155.671875 305.980469 156.25 C 306.035156 156.828125 306.066406 157.410156 306.066406 157.992188 Z M 306.066406 157.992188 " fill-opacity="1" fill-rule="nonzero"/></g><g clip-path="url(#e5455ab477)"><path fill="#66757f" d="M 349.59375 86.992188 C 332.929688 86.992188 319.429688 73.082031 319.429688 55.929688 C 319.429688 38.773438 354.617188 24.867188 354.617188 24.867188 C 354.617188 24.867188 366.246094 86.992188 349.59375 86.992188 Z M 349.59375 86.992188 " fill-opacity="1" fill-rule="nonzero"/></g><g clip-path="url(#520bd18b65)"><path fill="#e6aaaa" d="M 248.152344 60.367188 C 248.152344 70.167969 240.175781 78.117188 230.335938 78.117188 C 220.496094 78.117188 230.335938 42.617188 230.335938 42.617188 C 230.335938 42.617188 248.152344 50.5625 248.152344 60.367188 Z M 346.15625 78.117188 C 336.316406 78.117188 328.339844 70.167969 328.339844 60.367188 C 328.339844 50.5625 346.15625 42.617188 346.15625 42.617188 C 346.15625 42.617188 355.996094 78.117188 346.15625 78.117188 Z M 346.15625 78.117188 " fill-opacity="1" fill-rule="nonzero"/></g><g clip-path="url(#d06a26515d)"><path fill="#66757f" d="M 359.519531 122.492188 C 359.519531 153.554688 328.679688 153.554688 328.679688 153.554688 L 247.8125 153.554688 C 247.8125 153.554688 216.972656 153.554688 216.972656 122.492188 C 216.972656 122.492188 222.453125 38.179688 288.246094 38.179688 C 354.042969 38.179688 359.519531 122.492188 359.519531 122.492188 Z M 359.519531 122.492188 " fill-opacity="1" fill-rule="nonzero"/></g><path fill="#272b2b" d="M 257.0625 100.304688 C 257.0625 100.304688 257.0625 91.429688 265.972656 91.429688 C 274.882812 91.429688 274.882812 100.304688 274.882812 100.304688 L 274.882812 109.179688 C 274.882812 109.179688 274.882812 118.054688 265.972656 118.054688 C 257.0625 118.054688 257.0625 109.179688 257.0625 109.179688 Z M 301.609375 100.304688 C 301.609375 100.304688 301.609375 91.429688 310.519531 91.429688 C 319.429688 91.429688 319.429688 100.304688 319.429688 100.304688 L 319.429688 109.179688 C 319.429688 109.179688 319.429688 118.054688 310.519531 118.054688 C 301.609375 118.054688 301.609375 109.179688 301.609375 109.179688 Z M 301.609375 100.304688 " fill-opacity="1" fill-rule="nonzero"/><g clip-path="url(#1286b632a7)"><path fill="#ccd6dd" d="M 353.796875 132.085938 L 359.273438 118.054688 L 347.558594 129.882812 C 345.832031 129.441406 343.898438 129.039062 341.703125 128.683594 L 341.703125 109.179688 L 330.480469 127.464844 C 325.582031 127.128906 320.011719 126.929688 313.539062 126.929688 C 298.027344 126.929688 309.070312 146.679688 287.871094 148.890625 C 266.671875 146.679688 277.714844 126.929688 262.203125 126.929688 C 256.058594 126.929688 250.703125 127.105469 245.972656 127.40625 L 234.789062 109.179688 L 234.789062 128.550781 C 232.523438 128.894531 230.570312 129.300781 228.78125 129.738281 L 217.222656 118.054688 L 222.578125 131.777344 C 215.054688 135.230469 215.882812 140.050781 220.675781 144.679688 C 247.402344 170.496094 260.769531 171.304688 262.203125 171.304688 C 273.164062 171.304688 282.703125 166.875 287.871094 160.296875 C 293.035156 166.875 302.585938 171.304688 313.539062 171.304688 C 314.972656 171.304688 328.34375 170.496094 355.066406 144.679688 C 359.71875 140.183594 360.621094 135.515625 353.796875 132.085938 Z M 353.796875 132.085938 " fill-opacity="1" fill-rule="nonzero"/></g><g clip-path="url(#88114438be)"><path fill="#272b2b" d="M 274.882812 135.804688 C 270.425781 140.242188 274.882812 153.554688 288.246094 153.554688 C 301.609375 153.554688 306.066406 140.242188 301.609375 135.804688 C 297.15625 131.367188 279.335938 131.367188 274.882812 135.804688 Z M 274.882812 135.804688 " fill-opacity="1" fill-rule="nonzero"/></g><g clip-path="url(#50119ab008)"><path fill="#ccd6dd" d="M 55.375 24.257812 C 55.375 25.546875 55.3125 26.832031 55.183594 28.117188 C 55.058594 29.398438 54.871094 30.671875 54.617188 31.9375 C 54.367188 33.203125 54.054688 34.453125 53.679688 35.6875 C 53.304688 36.921875 52.871094 38.132812 52.378906 39.324219 C 51.882812 40.515625 51.332031 41.679688 50.726562 42.816406 C 50.117188 43.953125 49.453125 45.058594 48.738281 46.132812 C 48.023438 47.203125 47.253906 48.238281 46.4375 49.234375 C 45.617188 50.234375 44.753906 51.1875 43.84375 52.097656 C 42.929688 53.011719 41.976562 53.875 40.980469 54.695312 C 39.980469 55.511719 38.949219 56.277344 37.875 56.996094 C 36.804688 57.710938 35.699219 58.375 34.5625 58.980469 C 33.421875 59.589844 32.257812 60.140625 31.066406 60.632812 C 29.875 61.128906 28.664062 61.5625 27.429688 61.9375 C 26.195312 62.308594 24.945312 62.625 23.679688 62.875 C 22.417969 63.125 21.140625 63.316406 19.859375 63.441406 C 18.574219 63.566406 17.289062 63.632812 16 63.632812 C 14.710938 63.632812 13.421875 63.566406 12.140625 63.441406 C 10.855469 63.316406 9.582031 63.125 8.316406 62.875 C 7.054688 62.625 5.804688 62.308594 4.570312 61.9375 C 3.335938 61.5625 2.121094 61.128906 0.929688 60.632812 C -0.261719 60.140625 -1.425781 59.589844 -2.5625 58.980469 C -3.699219 58.375 -4.804688 57.710938 -5.875 56.996094 C -6.949219 56.277344 -7.984375 55.511719 -8.980469 54.695312 C -9.976562 53.875 -10.929688 53.011719 -11.84375 52.097656 C -12.753906 51.1875 -13.621094 50.234375 -14.4375 49.234375 C -15.257812 48.238281 -16.023438 47.203125 -16.738281 46.132812 C -17.457031 45.058594 -18.117188 43.953125 -18.726562 42.816406 C -19.335938 41.679688 -19.886719 40.515625 -20.378906 39.324219 C -20.871094 38.132812 -21.304688 36.921875 -21.679688 35.6875 C -22.054688 34.453125 -22.367188 33.203125 -22.617188 31.9375 C -22.871094 30.671875 -23.058594 29.398438 -23.1875 28.117188 C -23.3125 26.832031 -23.375 25.546875 -23.375 24.257812 C -23.375 22.964844 -23.3125 21.679688 -23.1875 20.398438 C -23.058594 19.113281 -22.871094 17.839844 -22.617188 16.574219 C -22.367188 15.308594 -22.054688 14.058594 -21.679688 12.828125 C -21.304688 11.59375 -20.871094 10.378906 -20.378906 9.1875 C -19.886719 7.996094 -19.335938 6.832031 -18.726562 5.695312 C -18.117188 4.558594 -17.457031 3.453125 -16.738281 2.378906 C -16.023438 1.308594 -15.257812 0.273438 -14.4375 -0.722656 C -13.621094 -1.71875 -12.753906 -2.675781 -11.84375 -3.585938 C -10.929688 -4.496094 -9.976562 -5.363281 -8.980469 -6.179688 C -7.984375 -7 -6.949219 -7.765625 -5.875 -8.484375 C -4.804688 -9.199219 -3.699219 -9.863281 -2.5625 -10.46875 C -1.425781 -11.078125 -0.261719 -11.628906 0.929688 -12.121094 C 2.121094 -12.613281 3.335938 -13.046875 4.570312 -13.421875 C 5.804688 -13.796875 7.054688 -14.109375 8.316406 -14.363281 C 9.582031 -14.613281 10.855469 -14.800781 12.140625 -14.929688 C 13.421875 -15.054688 14.710938 -15.117188 16 -15.117188 C 17.289062 -15.117188 18.574219 -15.054688 19.859375 -14.929688 C 21.140625 -14.800781 22.417969 -14.613281 23.679688 -14.363281 C 24.945312 -14.109375 26.195312 -13.796875 27.429688 -13.421875 C 28.664062 -13.046875 29.875 -12.613281 31.066406 -12.121094 C 32.257812 -11.628906 33.421875 -11.078125 34.5625 -10.46875 C 35.699219 -9.863281 36.804688 -9.199219 37.875 -8.484375 C 38.949219 -7.765625 39.980469 -7 40.980469 -6.179688 C 41.976562 -5.363281 42.929688 -4.496094 43.84375 -3.585938 C 44.753906 -2.675781 45.617188 -1.71875 46.4375 -0.722656 C 47.253906 0.273438 48.023438 1.308594 48.738281 2.378906 C 49.453125 3.453125 50.117188 4.558594 50.726562 5.695312 C 51.332031 6.832031 51.882812 7.996094 52.378906 9.1875 C 52.871094 10.378906 53.304688 11.59375 53.679688 12.828125 C 54.054688 14.058594 54.367188 15.308594 54.617188 16.574219 C 54.871094 17.839844 55.058594 19.113281 55.183594 20.398438 C 55.3125 21.679688 55.375 22.964844 55.375 24.257812 Z M 55.375 24.257812 " fill-opacity="1" fill-rule="nonzero"/></g><g clip-path="url(#e69df2dc1f)"><path fill="#b8c5cd" d="M 7.25 3.476562 C 7.25 3.976562 7.199219 4.476562 7.101562 4.96875 C 7.003906 5.460938 6.859375 5.941406 6.667969 6.40625 C 6.472656 6.871094 6.238281 7.3125 5.960938 7.730469 C 5.679688 8.148438 5.363281 8.535156 5.007812 8.890625 C 4.652344 9.246094 4.265625 9.5625 3.847656 9.839844 C 3.429688 10.121094 2.988281 10.355469 2.523438 10.546875 C 2.058594 10.742188 1.578125 10.886719 1.085938 10.984375 C 0.59375 11.082031 0.0976562 11.132812 -0.40625 11.132812 C -0.910156 11.132812 -1.40625 11.082031 -1.902344 10.984375 C -2.394531 10.886719 -2.871094 10.742188 -3.335938 10.546875 C -3.800781 10.355469 -4.242188 10.121094 -4.660156 9.839844 C -5.078125 9.5625 -5.464844 9.246094 -5.820312 8.890625 C -6.175781 8.535156 -6.492188 8.148438 -6.773438 7.730469 C -7.050781 7.3125 -7.289062 6.871094 -7.480469 6.40625 C -7.671875 5.941406 -7.816406 5.460938 -7.914062 4.96875 C -8.015625 4.476562 -8.0625 3.976562 -8.0625 3.476562 C -8.0625 2.972656 -8.015625 2.472656 -7.914062 1.980469 C -7.816406 1.488281 -7.671875 1.007812 -7.480469 0.546875 C -7.289062 0.0820312 -7.050781 -0.359375 -6.773438 -0.777344 C -6.492188 -1.195312 -6.175781 -1.582031 -5.820312 -1.9375 C -5.464844 -2.292969 -5.078125 -2.613281 -4.660156 -2.890625 C -4.242188 -3.171875 -3.800781 -3.40625 -3.335938 -3.597656 C -2.871094 -3.789062 -2.394531 -3.9375 -1.902344 -4.035156 C -1.40625 -4.132812 -0.910156 -4.179688 -0.40625 -4.179688 C 0.0976562 -4.179688 0.59375 -4.132812 1.085938 -4.035156 C 1.578125 -3.9375 2.058594 -3.789062 2.523438 -3.597656 C 2.988281 -3.40625 3.429688 -3.171875 3.847656 -2.890625 C 4.265625 -2.613281 4.652344 -2.292969 5.007812 -1.9375 C 5.363281 -1.582031 5.679688 -1.195312 5.960938 -0.777344 C 6.238281 -0.359375 6.472656 0.0820312 6.667969 0.546875 C 6.859375 1.007812 7.003906 1.488281 7.101562 1.980469 C 7.199219 2.472656 7.25 2.972656 7.25 3.476562 Z M 7.25 3.476562 " fill-opacity="1" fill-rule="nonzero"/></g><path fill="#b8c5cd" d="M 26.9375 22.070312 C 26.9375 22.5 26.894531 22.925781 26.8125 23.347656 C 26.726562 23.773438 26.601562 24.183594 26.4375 24.582031 C 26.273438 24.976562 26.070312 25.355469 25.832031 25.714844 C 25.589844 26.074219 25.320312 26.40625 25.015625 26.710938 C 24.710938 27.015625 24.378906 27.285156 24.019531 27.523438 C 23.664062 27.765625 23.285156 27.96875 22.886719 28.132812 C 22.488281 28.296875 22.078125 28.421875 21.65625 28.503906 C 21.230469 28.589844 20.804688 28.632812 20.375 28.632812 C 19.945312 28.632812 19.515625 28.589844 19.09375 28.503906 C 18.671875 28.421875 18.261719 28.296875 17.863281 28.132812 C 17.464844 27.96875 17.085938 27.765625 16.730469 27.523438 C 16.371094 27.285156 16.039062 27.015625 15.734375 26.710938 C 15.429688 26.40625 15.15625 26.074219 14.917969 25.714844 C 14.679688 25.355469 14.476562 24.976562 14.3125 24.582031 C 14.148438 24.183594 14.023438 23.773438 13.9375 23.347656 C 13.855469 22.925781 13.8125 22.5 13.8125 22.070312 C 13.8125 21.636719 13.855469 21.210938 13.9375 20.789062 C 14.023438 20.367188 14.148438 19.957031 14.3125 19.558594 C 14.476562 19.160156 14.679688 18.78125 14.917969 18.421875 C 15.15625 18.066406 15.429688 17.734375 15.734375 17.429688 C 16.039062 17.125 16.371094 16.851562 16.730469 16.613281 C 17.085938 16.371094 17.464844 16.171875 17.863281 16.007812 C 18.261719 15.839844 18.671875 15.714844 19.09375 15.632812 C 19.515625 15.546875 19.945312 15.507812 20.375 15.507812 C 20.804688 15.507812 21.230469 15.546875 21.65625 15.632812 C 22.078125 15.714844 22.488281 15.839844 22.886719 16.007812 C 23.285156 16.171875 23.664062 16.371094 24.019531 16.613281 C 24.378906 16.851562 24.710938 17.125 25.015625 17.429688 C 25.320312 17.734375 25.589844 18.066406 25.832031 18.421875 C 26.070312 18.78125 26.273438 19.160156 26.4375 19.558594 C 26.601562 19.957031 26.726562 20.367188 26.8125 20.789062 C 26.894531 21.210938 26.9375 21.636719 26.9375 22.070312 Z M 26.9375 22.070312 " fill-opacity="1" fill-rule="nonzero"/><path fill="#b8c5cd" d="M 37.875 47.226562 C 37.875 47.726562 37.824219 48.226562 37.726562 48.71875 C 37.628906 49.210938 37.484375 49.691406 37.292969 50.15625 C 37.097656 50.621094 36.863281 51.0625 36.585938 51.480469 C 36.304688 51.898438 35.988281 52.285156 35.632812 52.640625 C 35.277344 52.996094 34.890625 53.3125 34.472656 53.589844 C 34.054688 53.871094 33.613281 54.105469 33.148438 54.296875 C 32.683594 54.492188 32.203125 54.636719 31.710938 54.734375 C 31.21875 54.832031 30.722656 54.882812 30.21875 54.882812 C 29.714844 54.882812 29.21875 54.832031 28.722656 54.734375 C 28.230469 54.636719 27.753906 54.492188 27.289062 54.296875 C 26.824219 54.105469 26.382812 53.871094 25.964844 53.589844 C 25.546875 53.3125 25.160156 52.996094 24.804688 52.640625 C 24.449219 52.285156 24.132812 51.898438 23.851562 51.480469 C 23.574219 51.0625 23.335938 50.621094 23.144531 50.15625 C 22.953125 49.691406 22.808594 49.210938 22.710938 48.71875 C 22.609375 48.226562 22.5625 47.726562 22.5625 47.226562 C 22.5625 46.722656 22.609375 46.222656 22.710938 45.730469 C 22.808594 45.238281 22.953125 44.757812 23.144531 44.296875 C 23.335938 43.832031 23.574219 43.390625 23.851562 42.972656 C 24.132812 42.554688 24.449219 42.167969 24.804688 41.8125 C 25.160156 41.457031 25.546875 41.136719 25.964844 40.859375 C 26.382812 40.578125 26.824219 40.34375 27.289062 40.152344 C 27.753906 39.960938 28.230469 39.8125 28.722656 39.714844 C 29.21875 39.617188 29.714844 39.570312 30.21875 39.570312 C 30.722656 39.570312 31.21875 39.617188 31.710938 39.714844 C 32.203125 39.8125 32.683594 39.960938 33.148438 40.152344 C 33.613281 40.34375 34.054688 40.578125 34.472656 40.859375 C 34.890625 41.136719 35.277344 41.457031 35.632812 41.8125 C 35.988281 42.167969 36.304688 42.554688 36.585938 42.972656 C 36.863281 43.390625 37.097656 43.832031 37.292969 44.296875 C 37.484375 44.757812 37.628906 45.238281 37.726562 45.730469 C 37.824219 46.222656 37.875 46.722656 37.875 47.226562 Z M 37.875 47.226562 " fill-opacity="1" fill-rule="nonzero"/><g clip-path="url(#b89b66b1c6)"><path fill="#b8c5cd" d="M 29.125 -4.179688 C 29.125 -3.894531 29.097656 -3.609375 29.039062 -3.328125 C 28.984375 -3.046875 28.902344 -2.773438 28.792969 -2.507812 C 28.679688 -2.242188 28.546875 -1.988281 28.386719 -1.75 C 28.226562 -1.511719 28.046875 -1.289062 27.84375 -1.085938 C 27.640625 -0.882812 27.417969 -0.703125 27.179688 -0.542969 C 26.941406 -0.382812 26.6875 -0.25 26.421875 -0.140625 C 26.160156 -0.0273438 25.882812 0.0546875 25.601562 0.109375 C 25.320312 0.164062 25.035156 0.195312 24.75 0.195312 C 24.460938 0.195312 24.175781 0.164062 23.894531 0.109375 C 23.613281 0.0546875 23.339844 -0.0273438 23.074219 -0.140625 C 22.808594 -0.25 22.558594 -0.382812 22.320312 -0.542969 C 22.078125 -0.703125 21.859375 -0.882812 21.65625 -1.085938 C 21.453125 -1.289062 21.269531 -1.511719 21.113281 -1.75 C 20.953125 -1.988281 20.816406 -2.242188 20.707031 -2.507812 C 20.597656 -2.773438 20.515625 -3.046875 20.457031 -3.328125 C 20.402344 -3.609375 20.375 -3.894531 20.375 -4.179688 C 20.375 -4.46875 20.402344 -4.753906 20.457031 -5.035156 C 20.515625 -5.316406 20.597656 -5.589844 20.707031 -5.855469 C 20.816406 -6.121094 20.953125 -6.371094 21.113281 -6.613281 C 21.269531 -6.851562 21.453125 -7.070312 21.65625 -7.273438 C 21.859375 -7.476562 22.078125 -7.660156 22.320312 -7.820312 C 22.558594 -7.976562 22.808594 -8.113281 23.074219 -8.222656 C 23.339844 -8.332031 23.613281 -8.417969 23.894531 -8.472656 C 24.175781 -8.527344 24.460938 -8.554688 24.75 -8.554688 C 25.035156 -8.554688 25.320312 -8.527344 25.601562 -8.472656 C 25.882812 -8.417969 26.160156 -8.332031 26.421875 -8.222656 C 26.6875 -8.113281 26.941406 -7.976562 27.179688 -7.820312 C 27.417969 -7.660156 27.640625 -7.476562 27.84375 -7.273438 C 28.046875 -7.070312 28.226562 -6.851562 28.386719 -6.613281 C 28.546875 -6.371094 28.679688 -6.121094 28.792969 -5.855469 C 28.902344 -5.589844 28.984375 -5.316406 29.039062 -5.035156 C 29.097656 -4.753906 29.125 -4.46875 29.125 -4.179688 Z M 29.125 -4.179688 " fill-opacity="1" fill-rule="nonzero"/></g><path fill="#b8c5cd" d="M 44.4375 4.570312 C 44.4375 4.859375 44.382812 5.136719 44.269531 5.40625 C 44.160156 5.675781 44 5.910156 43.796875 6.117188 C 43.589844 6.320312 43.355469 6.480469 43.085938 6.589844 C 42.820312 6.699219 42.539062 6.757812 42.25 6.757812 C 41.960938 6.757812 41.679688 6.699219 41.414062 6.589844 C 41.144531 6.480469 40.90625 6.320312 40.703125 6.117188 C 40.496094 5.910156 40.339844 5.675781 40.226562 5.40625 C 40.117188 5.136719 40.0625 4.859375 40.0625 4.570312 C 40.0625 4.277344 40.117188 4 40.226562 3.730469 C 40.339844 3.464844 40.496094 3.226562 40.703125 3.023438 C 40.90625 2.816406 41.144531 2.660156 41.414062 2.546875 C 41.679688 2.4375 41.960938 2.382812 42.25 2.382812 C 42.539062 2.382812 42.820312 2.4375 43.085938 2.546875 C 43.355469 2.660156 43.589844 2.816406 43.796875 3.023438 C 44 3.226562 44.160156 3.464844 44.269531 3.730469 C 44.382812 4 44.4375 4.277344 44.4375 4.570312 Z M 44.4375 4.570312 " fill-opacity="1" fill-rule="nonzero"/><path fill="#b8c5cd" d="M 11.625 52.695312 C 11.625 52.984375 11.570312 53.261719 11.457031 53.53125 C 11.347656 53.800781 11.1875 54.035156 10.984375 54.242188 C 10.777344 54.445312 10.542969 54.605469 10.273438 54.714844 C 10.007812 54.824219 9.726562 54.882812 9.4375 54.882812 C 9.148438 54.882812 8.867188 54.824219 8.601562 54.714844 C 8.332031 54.605469 8.09375 54.445312 7.890625 54.242188 C 7.683594 54.035156 7.527344 53.800781 7.414062 53.53125 C 7.304688 53.261719 7.25 52.984375 7.25 52.695312 C 7.25 52.402344 7.304688 52.125 7.414062 51.855469 C 7.527344 51.589844 7.683594 51.351562 7.890625 51.148438 C 8.09375 50.941406 8.332031 50.785156 8.601562 50.671875 C 8.867188 50.5625 9.148438 50.507812 9.4375 50.507812 C 9.726562 50.507812 10.007812 50.5625 10.273438 50.671875 C 10.542969 50.785156 10.777344 50.941406 10.984375 51.148438 C 11.1875 51.351562 11.347656 51.589844 11.457031 51.855469 C 11.570312 52.125 11.625 52.402344 11.625 52.695312 Z M 11.625 52.695312 " fill-opacity="1" fill-rule="nonzero"/><path fill="#b8c5cd" d="M 51 26.445312 C 51 26.730469 50.972656 27.015625 50.914062 27.296875 C 50.859375 27.578125 50.777344 27.851562 50.667969 28.117188 C 50.554688 28.382812 50.421875 28.636719 50.261719 28.875 C 50.101562 29.113281 49.921875 29.335938 49.71875 29.539062 C 49.515625 29.742188 49.292969 29.921875 49.054688 30.082031 C 48.816406 30.242188 48.5625 30.375 48.296875 30.484375 C 48.035156 30.597656 47.757812 30.679688 47.476562 30.734375 C 47.195312 30.789062 46.910156 30.820312 46.625 30.820312 C 46.335938 30.820312 46.050781 30.789062 45.769531 30.734375 C 45.488281 30.679688 45.214844 30.597656 44.949219 30.484375 C 44.683594 30.375 44.433594 30.242188 44.195312 30.082031 C 43.953125 29.921875 43.734375 29.742188 43.53125 29.539062 C 43.328125 29.335938 43.144531 29.113281 42.988281 28.875 C 42.828125 28.636719 42.691406 28.382812 42.582031 28.117188 C 42.472656 27.851562 42.390625 27.578125 42.332031 27.296875 C 42.277344 27.015625 42.25 26.730469 42.25 26.445312 C 42.25 26.15625 42.277344 25.871094 42.332031 25.589844 C 42.390625 25.308594 42.472656 25.035156 42.582031 24.769531 C 42.691406 24.503906 42.828125 24.253906 42.988281 24.011719 C 43.144531 23.773438 43.328125 23.554688 43.53125 23.351562 C 43.734375 23.148438 43.953125 22.964844 44.195312 22.804688 C 44.433594 22.648438 44.683594 22.511719 44.949219 22.402344 C 45.214844 22.292969 45.488281 22.207031 45.769531 22.152344 C 46.050781 22.097656 46.335938 22.070312 46.625 22.070312 C 46.910156 22.070312 47.195312 22.097656 47.476562 22.152344 C 47.757812 22.207031 48.035156 22.292969 48.296875 22.402344 C 48.5625 22.511719 48.816406 22.648438 49.054688 22.804688 C 49.292969 22.964844 49.515625 23.148438 49.71875 23.351562 C 49.921875 23.554688 50.101562 23.773438 50.261719 24.011719 C 50.421875 24.253906 50.554688 24.503906 50.667969 24.769531 C 50.777344 25.035156 50.859375 25.308594 50.914062 25.589844 C 50.972656 25.871094 51 26.15625 51 26.445312 Z M 51 26.445312 " fill-opacity="1" fill-rule="nonzero"/><path fill="#b8c5cd" d="M 2.875 35.195312 C 2.875 35.480469 2.847656 35.765625 2.789062 36.046875 C 2.734375 36.328125 2.652344 36.601562 2.542969 36.867188 C 2.429688 37.132812 2.296875 37.386719 2.136719 37.625 C 1.976562 37.863281 1.796875 38.085938 1.59375 38.289062 C 1.390625 38.492188 1.167969 38.671875 0.929688 38.832031 C 0.691406 38.992188 0.4375 39.125 0.171875 39.234375 C -0.0898438 39.347656 -0.367188 39.429688 -0.648438 39.484375 C -0.929688 39.539062 -1.214844 39.570312 -1.5 39.570312 C -1.789062 39.570312 -2.074219 39.539062 -2.355469 39.484375 C -2.636719 39.429688 -2.910156 39.347656 -3.175781 39.234375 C -3.441406 39.125 -3.691406 38.992188 -3.929688 38.832031 C -4.171875 38.671875 -4.390625 38.492188 -4.59375 38.289062 C -4.796875 38.085938 -4.980469 37.863281 -5.136719 37.625 C -5.296875 37.386719 -5.433594 37.132812 -5.542969 36.867188 C -5.652344 36.601562 -5.734375 36.328125 -5.792969 36.046875 C -5.847656 35.765625 -5.875 35.480469 -5.875 35.195312 C -5.875 34.90625 -5.847656 34.621094 -5.792969 34.339844 C -5.734375 34.058594 -5.652344 33.785156 -5.542969 33.519531 C -5.433594 33.253906 -5.296875 33.003906 -5.136719 32.761719 C -4.980469 32.523438 -4.796875 32.304688 -4.59375 32.101562 C -4.390625 31.898438 -4.171875 31.714844 -3.929688 31.554688 C -3.691406 31.398438 -3.441406 31.261719 -3.175781 31.152344 C -2.910156 31.042969 -2.636719 30.957031 -2.355469 30.902344 C -2.074219 30.847656 -1.789062 30.820312 -1.5 30.820312 C -1.214844 30.820312 -0.929688 30.847656 -0.648438 30.902344 C -0.367188 30.957031 -0.0898438 31.042969 0.171875 31.152344 C 0.4375 31.261719 0.691406 31.398438 0.929688 31.554688 C 1.167969 31.714844 1.390625 31.898438 1.59375 32.101562 C 1.796875 32.304688 1.976562 32.523438 2.136719 32.761719 C 2.296875 33.003906 2.429688 33.253906 2.542969 33.519531 C 2.652344 33.785156 2.734375 34.058594 2.789062 34.339844 C 2.847656 34.621094 2.875 34.90625 2.875 35.195312 Z M 2.875 35.195312 " fill-opacity="1" fill-rule="nonzero"/><g fill="#ffffff" fill-opacity="1"><g transform="translate(96.012232, 82.025963)"><g><path d="M 4.46875 0 L 0.375 -14.3125 L 3.671875 -14.3125 L 6.046875 -4.359375 L 6.15625 -4.359375 L 8.78125 -14.3125 L 11.609375 -14.3125 L 14.203125 -4.34375 L 14.328125 -4.34375 L 16.703125 -14.3125 L 20 -14.3125 L 15.90625 0 L 12.96875 0 L 10.234375 -9.359375 L 10.125 -9.359375 L 7.40625 0 Z M 4.46875 0 "/></g></g></g><g fill="#ffffff" fill-opacity="1"><g transform="translate(116.381951, 82.025963)"><g><path d="M 6.03125 0.203125 C 4.945312 0.203125 4.007812 -0.0234375 3.21875 -0.484375 C 2.4375 -0.953125 1.828125 -1.597656 1.390625 -2.421875 C 0.960938 -3.253906 0.75 -4.222656 0.75 -5.328125 C 0.75 -6.429688 0.960938 -7.398438 1.390625 -8.234375 C 1.828125 -9.066406 2.4375 -9.710938 3.21875 -10.171875 C 4.007812 -10.640625 4.945312 -10.875 6.03125 -10.875 C 7.113281 -10.875 8.050781 -10.640625 8.84375 -10.171875 C 9.632812 -9.710938 10.242188 -9.066406 10.671875 -8.234375 C 11.097656 -7.398438 11.3125 -6.429688 11.3125 -5.328125 C 11.3125 -4.222656 11.097656 -3.253906 10.671875 -2.421875 C 10.242188 -1.597656 9.632812 -0.953125 8.84375 -0.484375 C 8.050781 -0.0234375 7.113281 0.203125 6.03125 0.203125 Z M 6.046875 -2.09375 C 6.785156 -2.09375 7.34375 -2.398438 7.71875 -3.015625 C 8.101562 -3.628906 8.296875 -4.40625 8.296875 -5.34375 C 8.296875 -6.28125 8.101562 -7.054688 7.71875 -7.671875 C 7.34375 -8.285156 6.785156 -8.59375 6.046875 -8.59375 C 5.296875 -8.59375 4.726562 -8.285156 4.34375 -7.671875 C 3.96875 -7.054688 3.78125 -6.28125 3.78125 -5.34375 C 3.78125 -4.40625 3.96875 -3.628906 4.34375 -3.015625 C 4.726562 -2.398438 5.296875 -2.09375 6.046875 -2.09375 Z M 6.046875 -2.09375 "/></g></g></g><g fill="#ffffff" fill-opacity="1"><g transform="translate(128.44876, 82.025963)"><g><path d="M 4.15625 -14.3125 L 4.15625 0 L 1.1875 0 L 1.1875 -14.3125 Z M 4.15625 -14.3125 "/></g></g></g><g fill="#ffffff" fill-opacity="1"><g transform="translate(133.797816, 82.025963)"><g><path d="M 7.0625 -10.734375 L 7.0625 -8.5 L 4.921875 -8.5 L 4.921875 0 L 1.953125 0 L 1.953125 -8.5 L 0.4375 -8.5 L 0.4375 -10.734375 L 1.953125 -10.734375 L 1.953125 -11.5 C 1.953125 -12.675781 2.285156 -13.550781 2.953125 -14.125 C 3.617188 -14.695312 4.457031 -14.984375 5.46875 -14.984375 C 5.925781 -14.984375 6.34375 -14.945312 6.71875 -14.875 C 7.101562 -14.800781 7.390625 -14.738281 7.578125 -14.6875 L 7.046875 -12.453125 C 6.929688 -12.484375 6.785156 -12.515625 6.609375 -12.546875 C 6.441406 -12.585938 6.269531 -12.609375 6.09375 -12.609375 C 5.65625 -12.609375 5.347656 -12.503906 5.171875 -12.296875 C 5.003906 -12.097656 4.921875 -11.816406 4.921875 -11.453125 L 4.921875 -10.734375 Z M 7.0625 -10.734375 "/></g></g></g><g fill="#ffffff" fill-opacity="1"><g transform="translate(141.47923, 82.025963)"><g><path d="M 1.1875 0 L 1.1875 -10.734375 L 4.15625 -10.734375 L 4.15625 0 Z M 2.671875 -12.109375 C 2.234375 -12.109375 1.851562 -12.253906 1.53125 -12.546875 C 1.21875 -12.847656 1.0625 -13.207031 1.0625 -13.625 C 1.0625 -14.039062 1.21875 -14.394531 1.53125 -14.6875 C 1.851562 -14.976562 2.234375 -15.125 2.671875 -15.125 C 3.117188 -15.125 3.5 -14.976562 3.8125 -14.6875 C 4.132812 -14.394531 4.296875 -14.039062 4.296875 -13.625 C 4.296875 -13.207031 4.132812 -12.847656 3.8125 -12.546875 C 3.5 -12.253906 3.117188 -12.109375 2.671875 -12.109375 Z M 2.671875 -12.109375 "/></g></g></g><g fill="#ffffff" fill-opacity="1"><g transform="translate(146.828286, 82.025963)"><g><path d="M 4.25 0.203125 C 3.21875 0.203125 2.363281 -0.0625 1.6875 -0.59375 C 1.019531 -1.132812 0.6875 -1.9375 0.6875 -3 C 0.6875 -3.800781 0.875 -4.425781 1.25 -4.875 C 1.625 -5.332031 2.117188 -5.664062 2.734375 -5.875 C 3.347656 -6.09375 4.007812 -6.234375 4.71875 -6.296875 C 5.644531 -6.390625 6.304688 -6.488281 6.703125 -6.59375 C 7.109375 -6.695312 7.3125 -6.921875 7.3125 -7.265625 L 7.3125 -7.3125 C 7.3125 -7.75 7.171875 -8.085938 6.890625 -8.328125 C 6.617188 -8.578125 6.226562 -8.703125 5.71875 -8.703125 C 5.1875 -8.703125 4.757812 -8.582031 4.4375 -8.34375 C 4.125 -8.113281 3.914062 -7.816406 3.8125 -7.453125 L 1.0625 -7.6875 C 1.269531 -8.664062 1.78125 -9.441406 2.59375 -10.015625 C 3.40625 -10.585938 4.453125 -10.875 5.734375 -10.875 C 6.535156 -10.875 7.28125 -10.742188 7.96875 -10.484375 C 8.664062 -10.234375 9.226562 -9.84375 9.65625 -9.3125 C 10.082031 -8.78125 10.296875 -8.085938 10.296875 -7.234375 L 10.296875 0 L 7.46875 0 L 7.46875 -1.484375 L 7.390625 -1.484375 C 7.128906 -0.984375 6.738281 -0.578125 6.21875 -0.265625 C 5.695312 0.046875 5.039062 0.203125 4.25 0.203125 Z M 5.09375 -1.84375 C 5.75 -1.84375 6.285156 -2.03125 6.703125 -2.40625 C 7.117188 -2.789062 7.328125 -3.265625 7.328125 -3.828125 L 7.328125 -4.96875 C 7.210938 -4.894531 7.03125 -4.828125 6.78125 -4.765625 C 6.539062 -4.703125 6.28125 -4.648438 6 -4.609375 C 5.726562 -4.566406 5.484375 -4.523438 5.265625 -4.484375 C 4.742188 -4.410156 4.320312 -4.265625 4 -4.046875 C 3.6875 -3.828125 3.53125 -3.507812 3.53125 -3.09375 C 3.53125 -2.6875 3.675781 -2.375 3.96875 -2.15625 C 4.269531 -1.945312 4.644531 -1.84375 5.09375 -1.84375 Z M 5.09375 -1.84375 "/></g></g></g><g fill="#ffffff" fill-opacity="1"><g transform="translate(158.238679, 82.025963)"><g><path d="M 1.1875 0 L 1.1875 -14.3125 L 4.15625 -14.3125 L 4.15625 -6.65625 L 4.328125 -6.65625 L 7.765625 -10.734375 L 11.171875 -10.734375 L 7.1875 -6.078125 L 11.375 0 L 7.890625 0 L 4.96875 -4.328125 L 4.15625 -3.40625 L 4.15625 0 Z M 1.1875 0 "/></g></g></g></svg>